<svg width="3659" height="1263" xmlns="http://www.w3.org/2000/svg" xmlns:xlink="http://www.w3.org/1999/xlink" xml:space="preserve" overflow="hidden"><g transform="translate(-516 -546)"><path d="M519.5 558.867C519.5 553.141 524.141 548.5 529.866 548.5L3306.13 548.5C3311.86 548.5 3316.5 553.141 3316.5 558.867L3316.5 1399.13C3316.5 1404.86 3311.86 1409.5 3306.13 1409.5L529.866 1409.5C524.141 1409.5 519.5 1404.86 519.5 1399.13Z" stroke="#172C51" stroke-width="4.58333" stroke-miterlimit="8" fill="#F0F0F0" fill-rule="evenodd"/><text font-family="Times New Roman,Times New Roman_MSFontService,sans-serif" font-weight="700" font-size="73" transform="matrix(1 0 0 1 3432.08 642)">SSBench</text><rect x="550.5" y="589.5" width="2728" height="520" stroke="#000000" stroke-width="4.58333" stroke-miterlimit="8" stroke-dasharray="18.3333 13.75" fill="#FFFFFF"/><rect x="1555.5" y="1454.5" width="1316" height="137" stroke="#000000" stroke-width="4.58333" stroke-miterlimit="8" fill="#FFFFFF"/><rect x="519.5" y="1630.5" width="2352" height="172" stroke="#000000" stroke-width="4.58333" stroke-miterlimit="8" fill="#FFFFFF"/><path d="M1227.5 1669.12C1227.5 1666.02 1230.02 1663.5 1233.12 1663.5L1850.88 1663.5C1853.98 1663.5 1856.5 1666.02 1856.5 1669.12L1856.5 1753.88C1856.5 1756.98 1853.98 1759.5 1850.88 1759.5L1233.12 1759.5C1230.02 1759.5 1227.5 1756.98 1227.5 1753.88Z" stroke="#000000" stroke-width="6.875" stroke-miterlimit="8" fill="#FFF2CC" fill-rule="evenodd"/><text font-family="Times New Roman,Times New Roman_MSFontService,sans-serif" font-weight="700" font-size="64" transform="matrix(1 0 0 1 1255.47 1735)">x86</text><text font-family="Times New Roman,Times New Roman_MSFontService,sans-serif" font-weight="700" font-size="64" transform="matrix(1 0 0 1 1351.72 1735)">-</text><text font-family="Times New Roman,Times New Roman_MSFontService,sans-serif" font-weight="700" font-size="64" transform="matrix(1 0 0 1 1372.92 1735)">64 (Intel / AMD)</text><path d="M1889.5 1669.18C1889.5 1666.04 1892.04 1663.5 1895.18 1663.5L2818.82 1663.5C2821.96 1663.5 2824.5 1666.04 2824.5 1669.18L2824.5 1754.82C2824.5 1757.96 2821.96 1760.5 2818.82 1760.5L1895.18 1760.5C1892.04 1760.5 1889.5 1757.96 1889.5 1754.82Z" stroke="#000000" stroke-width="6.875" stroke-miterlimit="8" fill="#FFF2CC" fill-rule="evenodd"/><text font-family="Times New Roman,Times New Roman_MSFontService,sans-serif" font-weight="700" font-size="64" transform="matrix(1 0 0 1 1913.48 1735)">arm64 (Armv8 / Armv9 / Apple)</text><text font-family="Times New Roman,Times New Roman_MSFontService,sans-serif" font-weight="700" font-size="73" transform="matrix(1 0 0 1 691.287 1738)">Arch</text><g><g><g><path d="M570.463 1752.54 641.537 1752.54 641.537 1681.46 570.463 1681.46 570.463 1752.54ZM574.491 1698.9 628.795 1698.9 628.795 1694.87 574.491 1694.87 574.491 1685.49 637.509 1685.49 637.509 1685.49 637.509 1748.51 574.491 1748.51 574.491 1698.9Z" fill="#7F6000"/><path d="M626.114 1729.74 631.478 1729.74 631.478 1733.76 626.114 1733.76Z" fill="#7F6000"/><path d="M626.114 1737.78 631.478 1737.78 631.478 1741.81 626.114 1741.81Z" fill="#7F6000"/><path d="M618.068 1737.78 623.432 1737.78 623.432 1741.81 618.068 1741.81Z" fill="#7F6000"/><path d="M610.023 1729.74 623.432 1729.74 623.432 1733.76 610.023 1733.76Z" fill="#7F6000"/><path d="M665 1684.15 665 1680.12 650.923 1680.12 650.923 1676.77C650.923 1674.18 648.817 1672.08 646.228 1672.08L645.56 1672.08 645.56 1658 641.532 1658 641.532 1672.08 626.787 1672.08 626.787 1662.02 622.759 1662.02 622.759 1672.08 608.015 1672.08 608.015 1658 603.986 1658 603.986 1672.08 589.242 1672.08 589.242 1662.02 585.214 1662.02 585.214 1672.08 570.469 1672.08 570.469 1658 566.441 1658 566.441 1672.08 565.773 1672.08C563.184 1672.08 561.077 1674.18 561.077 1676.77L561.077 1680.12 547 1680.12 547 1684.15 561.077 1684.15 561.077 1696.21 551.023 1696.21 551.023 1700.24 561.077 1700.24 561.077 1714.99 547 1714.99 547 1719.01 561.077 1719.01 561.077 1732.42 551.023 1732.42 551.023 1736.45 561.077 1736.45 561.077 1749.85 547 1749.85 547 1753.88 561.077 1753.88 561.077 1757.23C561.077 1759.82 563.184 1761.92 565.773 1761.92L566.44 1761.92 566.44 1776 570.469 1776 570.469 1761.92 585.213 1761.92 585.213 1771.98 589.241 1771.98 589.241 1761.92 603.985 1761.92 603.985 1776 608.014 1776 608.014 1761.92 622.758 1761.92 622.758 1771.98 626.787 1771.98 626.787 1761.92 641.531 1761.92 641.531 1776 645.559 1776 645.559 1761.92 646.227 1761.92C648.816 1761.92 650.923 1759.82 650.923 1757.23L650.923 1753.88 664.999 1753.88 664.999 1749.85 650.923 1749.85 650.923 1736.45 660.977 1736.45 660.977 1732.42 650.923 1732.42 650.923 1719.01 664.999 1719.01 664.999 1714.99 650.923 1714.99 650.923 1700.24 660.977 1700.24 660.977 1696.21 650.923 1696.21 650.923 1684.15 665 1684.15ZM646.895 1757.23C646.895 1757.59 646.589 1757.89 646.227 1757.89L565.773 1757.89C565.411 1757.89 565.105 1757.59 565.105 1757.23L565.105 1676.77C565.105 1676.41 565.411 1676.11 565.773 1676.11L646.227 1676.11C646.589 1676.11 646.895 1676.41 646.895 1676.77L646.895 1757.23Z" fill="#7F6000"/><path d="M582.531 1704.93 586.559 1704.93 586.559 1715.66 582.531 1715.66Z" fill="#7F6000"/><path d="M593.259 1704.93 597.287 1704.93 597.287 1715.66 593.259 1715.66Z" fill="#7F6000"/><path d="M603.986 1704.93 608.014 1704.93 608.014 1715.66 603.986 1715.66Z" fill="#7F6000"/><path d="M614.713 1704.93 618.742 1704.93 618.742 1715.66 614.713 1715.66Z" fill="#7F6000"/><path d="M625.44 1704.93 629.468 1704.93 629.468 1715.66 625.44 1715.66Z" fill="#7F6000"/></g></g></g><path d="M893.5 1669.18C893.5 1666.04 896.043 1663.5 899.181 1663.5L1181.82 1663.5C1184.96 1663.5 1187.5 1666.04 1187.5 1669.18L1187.5 1754.82C1187.5 1757.96 1184.96 1760.5 1181.82 1760.5L899.181 1760.5C896.043 1760.5 893.5 1757.96 893.5 1754.82Z" stroke="#000000" stroke-width="6.875" stroke-miterlimit="8" fill="#FFF2CC" fill-rule="evenodd"/><text font-family="Times New Roman,Times New Roman_MSFontService,sans-serif" font-weight="700" font-size="64" transform="matrix(1 0 0 1 929.304 1735)">RISC</text><text font-family="Times New Roman,Times New Roman_MSFontService,sans-serif" font-weight="700" font-size="64" transform="matrix(1 0 0 1 1082.85 1735)">-</text><text font-family="Times New Roman,Times New Roman_MSFontService,sans-serif" font-weight="700" font-size="64" transform="matrix(1 0 0 1 1104.04 1735)">V</text><rect x="518.5" y="1455.5" width="1003" height="137" stroke="#000000" stroke-width="4.58333" stroke-miterlimit="8" fill="#FFFFFF"/><g><g><g><path d="M624.151 1516.24C629.258 1516.24 633.416 1512.08 633.416 1506.97 633.416 1501.87 629.258 1497.71 624.151 1497.71 619.041 1497.71 614.891 1501.87 614.891 1506.97 614.891 1512.08 619.041 1516.24 624.151 1516.24Z" fill="#7F6000"/><path d="M573.213 1543.13C572.474 1543.34 571.704 1543.45 570.927 1543.45 570.206 1543.45 569.485 1543.36 568.761 1543.16 567.154 1542.72 565.751 1541.82 564.673 1540.57L561.948 1540.57C561.015 1540.57 560.26 1539.81 560.26 1538.88L560.26 1533.21C558.874 1530.66 558.969 1527.69 560.26 1525.3L560.26 1521.29C558.976 1518.91 558.881 1515.95 560.26 1513.4L560.26 1486.23C560.26 1485.3 561.015 1484.54 561.948 1484.54L601.888 1484.54C602.691 1484.01 603.562 1483.57 604.527 1483.31 605.282 1483.11 606.066 1483 606.855 1483 608.25 1483 609.626 1483.33 610.853 1483.94 611.026 1481.2 612.457 1478.82 614.539 1477.28L561.948 1477.28C557.017 1477.28 553 1481.29 553 1486.23L553 1538.88C553 1543.81 557.017 1547.83 561.948 1547.83L576.431 1547.83C574.862 1546.7 573.691 1545.05 573.213 1543.13Z" fill="#7F6000"/><path d="M652.053 1477.28 633.764 1477.28C635.849 1478.82 637.278 1481.2 637.446 1483.95 638.684 1483.33 640.056 1483 641.449 1483 643.229 1483 644.92 1483.58 646.369 1484.54L652.053 1484.54C652.985 1484.54 653.742 1485.3 653.742 1486.23L653.742 1495.38C654.769 1497.39 655.039 1499.65 654.455 1501.8 654.286 1502.43 654.036 1503.03 653.742 1503.6L653.742 1510.38C655.01 1512.88 655.103 1515.91 653.742 1518.56L653.742 1538.88C653.742 1539.81 652.985 1540.57 652.053 1540.57L604.645 1540.57C603.576 1541.81 602.145 1542.73 600.549 1543.16 599.845 1543.35 599.12 1543.45 598.396 1543.45 597.615 1543.45 596.848 1543.34 596.11 1543.13 596.014 1543.5 595.884 1543.85 595.747 1544.2 594.96 1546.16 593.44 1547.73 591.526 1548.62L591.526 1553.41C585.833 1554.03 581.372 1558.81 581.372 1564.66L581.372 1567.99C581.372 1569.5 582.594 1570.72 584.091 1570.72L629.913 1570.72C631.411 1570.72 632.631 1569.5 632.631 1567.99L632.631 1564.66C632.631 1558.81 628.172 1554.03 622.478 1553.41L622.478 1547.83 652.053 1547.83C656.984 1547.83 661 1543.81 661 1538.88L661 1486.23C661 1481.29 656.984 1477.28 652.053 1477.28ZM627.19 1564.66 627.19 1565.27 586.814 1565.27 586.814 1564.66C586.814 1561.4 589.473 1558.74 592.743 1558.74L621.26 1558.74C624.532 1558.74 627.19 1561.4 627.19 1564.66Z" fill="#7F6000"/><path d="M608.63 1488.92C608.089 1488.61 607.47 1488.45 606.855 1488.45 606.545 1488.45 606.236 1488.49 605.933 1488.57 605.022 1488.82 604.252 1489.41 603.777 1490.23L599.458 1497.7C598.477 1499.4 599.054 1501.57 600.759 1502.56L604.02 1504.44C603.978 1504.73 603.939 1505.02 603.9 1505.31 604.536 1505.89 605.113 1506.52 605.547 1507.28L608.983 1513.23C610.084 1515.14 610.372 1517.37 609.795 1519.52 609.394 1520.98 608.627 1522.27 607.558 1523.3 608.054 1523.78 608.469 1524.32 608.831 1524.91L611.87 1523.15C613.231 1524.19 614.676 1525.11 616.28 1525.78L616.28 1529.45C616.28 1531.4 617.873 1532.99 619.836 1532.99L628.467 1532.99C630.426 1532.99 632.019 1531.4 632.019 1529.45L632.019 1525.78C633.623 1525.11 635.069 1524.19 636.427 1523.15L639.676 1525.02C640.222 1525.34 640.837 1525.5 641.455 1525.5 641.758 1525.5 642.061 1525.46 642.366 1525.38 643.274 1525.14 644.059 1524.54 644.527 1523.72L648.842 1516.25C649.824 1514.55 649.243 1512.37 647.54 1511.39L644.281 1509.51C644.389 1508.67 644.544 1507.85 644.544 1506.97 644.544 1506.11 644.389 1505.28 644.281 1504.44L647.54 1502.56C648.364 1502.09 648.955 1501.31 649.193 1500.4 649.44 1499.49 649.313 1498.52 648.842 1497.7L644.527 1490.23C643.869 1489.09 642.673 1488.45 641.449 1488.45 640.844 1488.45 640.236 1488.6 639.676 1488.93L636.427 1490.8C635.069 1489.76 633.616 1488.84 632.019 1488.17L632.019 1484.51C632.019 1482.55 630.426 1480.95 628.467 1480.95L619.836 1480.95C617.873 1480.95 616.28 1482.55 616.28 1484.51L616.28 1488.17C614.68 1488.84 613.231 1489.76 611.87 1490.8L608.63 1488.92ZM624.151 1494.08C631.26 1494.08 637.042 1499.86 637.042 1506.97 637.042 1514.08 631.26 1519.87 624.151 1519.87 617.044 1519.87 611.261 1514.08 611.261 1506.97 611.261 1499.86 617.044 1494.08 624.151 1494.08Z" fill="#7F6000"/><path d="M590.907 1541.14 590.907 1538.23C592.181 1537.7 593.328 1536.97 594.411 1536.14L596.986 1537.62C597.418 1537.88 597.9 1538.01 598.396 1538.01 598.639 1538.01 598.882 1537.97 599.117 1537.91 599.838 1537.71 600.461 1537.24 600.83 1536.6L604.266 1530.66C605.044 1529.31 604.578 1527.59 603.228 1526.81L600.643 1525.31C600.721 1524.65 600.84 1523.99 600.84 1523.3 600.84 1522.61 600.721 1521.95 600.643 1521.29L603.228 1519.8C603.876 1519.42 604.346 1518.8 604.547 1518.08 604.741 1517.35 604.631 1516.59 604.266 1515.94L600.83 1510.01C600.314 1509.1 599.364 1508.6 598.389 1508.6 597.907 1508.6 597.429 1508.72 596.987 1508.98L594.412 1510.46C593.328 1509.64 592.178 1508.91 590.908 1508.37L590.908 1505.47C590.908 1503.91 589.645 1502.65 588.087 1502.65L581.237 1502.65C579.675 1502.65 578.415 1503.91 578.415 1505.47L578.415 1508.37C577.149 1508.91 575.992 1509.64 574.916 1510.46L572.338 1508.97C571.908 1508.72 571.427 1508.6 570.938 1508.6 570.692 1508.6 570.442 1508.63 570.199 1508.69 569.478 1508.89 568.867 1509.36 568.487 1510L565.057 1515.94C564.286 1517.29 564.744 1519.02 566.091 1519.8L568.68 1521.29C568.603 1521.95 568.482 1522.61 568.482 1523.3 568.482 1523.99 568.603 1524.65 568.68 1525.31L566.091 1526.8C564.744 1527.58 564.286 1529.31 565.057 1530.66L568.486 1536.6C568.866 1537.24 569.478 1537.71 570.199 1537.91 570.438 1537.97 570.685 1538.01 570.927 1538.01 571.423 1538.01 571.905 1537.88 572.338 1537.62L574.909 1536.14C575.991 1536.97 577.148 1537.7 578.415 1538.23L578.415 1541.14C578.415 1542.69 579.674 1543.95 581.236 1543.95L588.087 1543.95C589.645 1543.96 590.907 1542.69 590.907 1541.14ZM576.882 1523.3C576.882 1519 580.367 1515.52 584.654 1515.52 588.96 1515.52 592.445 1519 592.445 1523.3 592.445 1527.6 588.96 1531.08 584.654 1531.08 580.367 1531.08 576.882 1527.6 576.882 1523.3Z" fill="#7F6000"/></g></g></g><text font-family="Times New Roman,Times New Roman_MSFontService,sans-serif" font-weight="700" font-size="73" transform="matrix(1 0 0 1 695.2 1547)">OS</text><path d="M864.5 1481.12C864.5 1478.02 867.017 1475.5 870.123 1475.5L1146.88 1475.5C1149.98 1475.5 1152.5 1478.02 1152.5 1481.12L1152.5 1565.88C1152.5 1568.98 1149.98 1571.5 1146.88 1571.5L870.123 1571.5C867.017 1571.5 864.5 1568.98 864.5 1565.88Z" stroke="#000000" stroke-width="6.875" stroke-miterlimit="8" fill="#FFF2CC" fill-rule="evenodd"/><text font-family="Times New Roman,Times New Roman_MSFontService,sans-serif" font-weight="400" font-size="73" transform="matrix(1 0 0 1 920.473 1550)">Linux</text><path d="M1193.5 1481.24C1193.5 1478.07 1196.07 1475.5 1199.24 1475.5L1475.76 1475.5C1478.93 1475.5 1481.5 1478.07 1481.5 1481.24L1481.5 1567.76C1481.5 1570.93 1478.93 1573.5 1475.76 1573.5L1199.24 1573.5C1196.07 1573.5 1193.5 1570.93 1193.5 1567.76Z" stroke="#000000" stroke-width="6.875" stroke-miterlimit="8" fill="#FFF2CC" fill-rule="evenodd"/><text font-family="Times New Roman,Times New Roman_MSFontService,sans-serif" font-weight="400" font-size="73" transform="matrix(1 0 0 1 1228.89 1551)">macOS</text><text font-family="Times New Roman,Times New Roman_MSFontService,sans-serif" font-weight="700" font-size="73" transform="matrix(1 0 0 1 1722.78 1547)">Assembler</text><g><g><g><path d="M18.3906 92.2874C17.6104 93.0676 16.6073 93.2905 15.6042 92.8447 14.601 92.3989 14.0437 91.5072 14.0437 90.5041 14.0437 89.501 14.7125 88.4978 15.6042 88.1635 16.6073 87.7176 17.6104 87.9405 18.3906 88.7207 19.3937 89.6124 19.3937 91.2843 18.3906 92.2874ZM97.0801 18.8364 88.052 27.8646 80.9187 25.9698 79.1353 18.9479 88.1635 9.91978C82.8135 7.91353 76.7947 9.13958 72.5593 12.9292 68.3239 16.8302 66.652 22.626 68.101 28.1989L11.2573 85.0426C9.25103 86.9374 8.47083 89.8353 9.13958 92.5103 9.80832 95.1853 11.926 97.303 14.601 97.9718 17.276 98.6405 20.0625 97.8603 22.0687 95.8541L78.9124 39.0104C84.4853 40.4593 90.2812 38.7875 94.1822 34.5521 97.9718 30.3166 99.1978 24.1864 97.0801 18.8364Z" fill="#7F6000" transform="matrix(1.00935 0 0 1 1583 1473)"/><path d="M96.6343 85.0426 67.8781 56.2864 56.2864 67.8781 84.151 95.7426 85.1541 96.7458 85.2655 96.6343C88.4978 98.9749 92.9562 98.5291 95.7426 95.7426 98.5291 92.8447 98.8634 88.3864 96.6343 85.0426L96.6343 85.0426Z" fill="#7F6000" transform="matrix(1.00935 0 0 1 1583 1473)"/><path d="M25.1896 22.0687 25.301 21.9573 22.4031 16.6073 12.8177 8.91666 8.91666 12.8177 16.6073 22.4031 21.9573 25.301 22.0687 25.1896 43.3573 46.4781 46.4781 43.3573Z" fill="#7F6000" transform="matrix(1.00935 0 0 1 1583 1473)"/></g></g></g><path d="M2082.5 1479.24C2082.5 1476.07 2085.07 1473.5 2088.24 1473.5L2540.76 1473.5C2543.93 1473.5 2546.5 1476.07 2546.5 1479.24L2546.5 1565.76C2546.5 1568.93 2543.93 1571.5 2540.76 1571.5L2088.24 1571.5C2085.07 1571.5 2082.5 1568.93 2082.5 1565.76Z" stroke="#000000" stroke-width="6.875" stroke-miterlimit="8" fill="#FFF2CC" fill-rule="evenodd"/><text font-family="Times New Roman,Times New Roman_MSFontService,sans-serif" font-weight="400" font-size="64" transform="matrix(1 0 0 1 2127.73 1545)">store</text><text font-family="Times New Roman,Times New Roman_MSFontService,sans-serif" font-weight="400" font-size="64" transform="matrix(1 0 0 1 2252.62 1545)">-</text><text font-family="Times New Roman,Times New Roman_MSFontService,sans-serif" font-weight="400" font-size="64" transform="matrix(1 0 0 1 2273.82 1545)">load pair</text><path d="M2579.5 1479.24C2579.5 1476.07 2582.07 1473.5 2585.24 1473.5L2818.76 1473.5C2821.93 1473.5 2824.5 1476.07 2824.5 1479.24L2824.5 1565.76C2824.5 1568.93 2821.93 1571.5 2818.76 1571.5L2585.24 1571.5C2582.07 1571.5 2579.5 1568.93 2579.5 1565.76Z" stroke="#000000" stroke-width="6.875" stroke-miterlimit="8" fill="#FFF2CC" fill-rule="evenodd"/><text font-family="Times New Roman,Times New Roman_MSFontService,sans-serif" font-weight="400" font-size="64" transform="matrix(1 0 0 1 2614.05 1545)">branch</text><path d="M881.5 664.398C881.5 658.932 885.932 654.5 891.398 654.5L1334.6 654.5C1340.07 654.5 1344.5 658.932 1344.5 664.398L1344.5 813.602C1344.5 819.068 1340.07 823.5 1334.6 823.5L891.398 823.5C885.932 823.5 881.5 819.068 881.5 813.602Z" stroke="#000000" stroke-width="6.875" stroke-miterlimit="8" fill="#E2F0D9" fill-rule="evenodd"/><text font-family="Times New Roman,Times New Roman_MSFontService,sans-serif" font-weight="700" font-size="73" transform="matrix(1 0 0 1 963.52 732)">Existence </text><text font-family="Times New Roman,Times New Roman_MSFontService,sans-serif" font-weight="700" font-size="55" transform="matrix(1 0 0 1 940.902 802)">(Section III</text><text font-family="Times New Roman,Times New Roman_MSFontService,sans-serif" font-weight="700" font-size="55" transform="matrix(1 0 0 1 1207.88 802)">-</text><text font-family="Times New Roman,Times New Roman_MSFontService,sans-serif" font-weight="700" font-size="55" transform="matrix(1 0 0 1 1226.21 802)">C)</text><path d="M2043.5 664.398C2043.5 658.932 2047.93 654.5 2053.4 654.5L2583.6 654.5C2589.07 654.5 2593.5 658.932 2593.5 664.398L2593.5 813.602C2593.5 819.069 2589.07 823.5 2583.6 823.5L2053.4 823.5C2047.93 823.5 2043.5 819.069 2043.5 813.602Z" stroke="#000000" stroke-width="6.875" stroke-miterlimit="8" fill="#E2F0D9" fill-rule="evenodd"/><text font-family="Times New Roman,Times New Roman_MSFontService,sans-serif" font-weight="700" font-size="73" transform="matrix(1 0 0 1 2092.41 732)">State Machine </text><text font-family="Times New Roman,Times New Roman_MSFontService,sans-serif" font-weight="700" font-size="55" transform="matrix(1 0 0 1 2146.27 802)">(Section III</text><text font-family="Times New Roman,Times New Roman_MSFontService,sans-serif" font-weight="700" font-size="55" transform="matrix(1 0 0 1 2413.25 802)">-</text><text font-family="Times New Roman,Times New Roman_MSFontService,sans-serif" font-weight="700" font-size="55" transform="matrix(1 0 0 1 2431.58 802)">D)</text><path d="M2667.5 664.399C2667.5 658.932 2671.93 654.5 2677.4 654.5L3217.6 654.5C3223.07 654.5 3227.5 658.932 3227.5 664.399L3227.5 813.602C3227.5 819.068 3223.07 823.5 3217.6 823.5L2677.4 823.5C2671.93 823.5 2667.5 819.068 2667.5 813.602Z" stroke="#000000" stroke-width="6.875" stroke-miterlimit="8" fill="#E2F0D9" fill-rule="evenodd"/><text font-family="Times New Roman,Times New Roman_MSFontService,sans-serif" font-weight="700" font-size="73" transform="matrix(1 0 0 1 2715.53 732)">Hash Function</text><text font-family="Times New Roman,Times New Roman_MSFontService,sans-serif" font-weight="700" font-size="55" transform="matrix(1 0 0 1 2776.84 802)">(Section III</text><text font-family="Times New Roman,Times New Roman_MSFontService,sans-serif" font-weight="700" font-size="55" transform="matrix(1 0 0 1 3043.82 802)">-</text><text font-family="Times New Roman,Times New Roman_MSFontService,sans-serif" font-weight="700" font-size="55" transform="matrix(1 0 0 1 3062.15 802)">E)</text><path d="M1418.5 664.399C1418.5 658.932 1422.93 654.5 1428.4 654.5L1959.6 654.5C1965.07 654.5 1969.5 658.932 1969.5 664.399L1969.5 813.602C1969.5 819.068 1965.07 823.5 1959.6 823.5L1428.4 823.5C1422.93 823.5 1418.5 819.068 1418.5 813.602Z" stroke="#000000" stroke-width="6.875" stroke-miterlimit="8" fill="#E2F0D9" fill-rule="evenodd"/><text font-family="Times New Roman,Times New Roman_MSFontService,sans-serif" font-weight="700" font-size="73" transform="matrix(1 0 0 1 1480.92 732)">Identification </text><text font-family="Times New Roman,Times New Roman_MSFontService,sans-serif" font-weight="700" font-size="55" transform="matrix(1 0 0 1 1521.87 802)">(Section III</text><text font-family="Times New Roman,Times New Roman_MSFontService,sans-serif" font-weight="700" font-size="55" transform="matrix(1 0 0 1 1788.85 802)">-</text><text font-family="Times New Roman,Times New Roman_MSFontService,sans-serif" font-weight="700" font-size="55" transform="matrix(1 0 0 1 1807.18 802)">C)</text><path d="M880.5 889.34C880.5 883.906 884.905 879.5 890.34 879.5L1445.66 879.5C1451.09 879.5 1455.5 883.906 1455.5 889.34L1455.5 1037.66C1455.5 1043.09 1451.09 1047.5 1445.66 1047.5L890.34 1047.5C884.905 1047.5 880.5 1043.09 880.5 1037.66Z" stroke="#000000" stroke-width="6.875" stroke-miterlimit="8" fill="#E2F0D9" fill-rule="evenodd"/><text font-family="Times New Roman,Times New Roman_MSFontService,sans-serif" font-weight="700" font-size="73" transform="matrix(1 0 0 1 978.923 957)">Eviction Set </text><text font-family="Times New Roman,Times New Roman_MSFontService,sans-serif" font-weight="700" font-size="55" transform="matrix(1 0 0 1 997.531 1027)">(Section III</text><text font-family="Times New Roman,Times New Roman_MSFontService,sans-serif" font-weight="700" font-size="55" transform="matrix(1 0 0 1 1264.51 1027)">-</text><text font-family="Times New Roman,Times New Roman_MSFontService,sans-serif" font-weight="700" font-size="55" transform="matrix(1 0 0 1 1282.84 1027)">E)</text><path d="M1524.5 889.34C1524.5 883.906 1528.91 879.5 1534.34 879.5L2331.66 879.5C2337.09 879.5 2341.5 883.906 2341.5 889.34L2341.5 1037.66C2341.5 1043.09 2337.09 1047.5 2331.66 1047.5L1534.34 1047.5C1528.91 1047.5 1524.5 1043.09 1524.5 1037.66Z" stroke="#000000" stroke-width="6.875" stroke-miterlimit="8" fill="#E2F0D9" fill-rule="evenodd"/><text font-family="Times New Roman,Times New Roman_MSFontService,sans-serif" font-weight="700" font-size="73" transform="matrix(1 0 0 1 1602.98 957)">Indexing Mechanism</text><text font-family="Times New Roman,Times New Roman_MSFontService,sans-serif" font-weight="700" font-size="55" transform="matrix(1 0 0 1 1762.25 1027)">(Section III</text><text font-family="Times New Roman,Times New Roman_MSFontService,sans-serif" font-weight="700" font-size="55" transform="matrix(1 0 0 1 2029.23 1027)">-</text><text font-family="Times New Roman,Times New Roman_MSFontService,sans-serif" font-weight="700" font-size="55" transform="matrix(1 0 0 1 2047.56 1027)">E)</text><path d="M2410.5 889.34C2410.5 883.906 2414.91 879.5 2420.34 879.5L3217.66 879.5C3223.09 879.5 3227.5 883.906 3227.5 889.34L3227.5 1037.66C3227.5 1043.09 3223.09 1047.5 3217.66 1047.5L2420.34 1047.5C2414.91 1047.5 2410.5 1043.09 2410.5 1037.66Z" stroke="#000000" stroke-width="6.875" stroke-miterlimit="8" fill="#E2F0D9" fill-rule="evenodd"/><text font-family="Times New Roman,Times New Roman_MSFontService,sans-serif" font-weight="700" font-size="73" transform="matrix(1 0 0 1 2509.24 957)">Replacement Policy</text><text font-family="Times New Roman,Times New Roman_MSFontService,sans-serif" font-weight="700" font-size="55" transform="matrix(1 0 0 1 2648.18 1027)">(Section III</text><text font-family="Times New Roman,Times New Roman_MSFontService,sans-serif" font-weight="700" font-size="55" transform="matrix(1 0 0 1 2915.16 1027)">-</text><text font-family="Times New Roman,Times New Roman_MSFontService,sans-serif" font-weight="700" font-size="55" transform="matrix(1 0 0 1 2933.49 1027)">E)</text><text font-family="Times New Roman,Times New Roman_MSFontService,sans-serif" font-weight="700" font-size="73" transform="matrix(1 0 0 1 651.783 694)">Test</text><text font-family="Times New Roman,Times New Roman_MSFontService,sans-serif" font-weight="700" font-size="73" transform="matrix(1 0 0 1 621.785 782)">Suites</text><rect x="639.5" y="858.5" width="120" height="133" stroke="#172C51" stroke-width="4.58333" stroke-miterlimit="8" fill="#FFFFFF"/><g><g><g><path d="M162.292 162.292 55.5209 162.292 55.5209 42.7084 162.292 42.7084 162.292 162.292ZM42.7084 29.8959 42.7084 42.7084 39.9323 42.7084C36.5157 42.9219 34.1667 45.698 34.1667 49.1146 33.9532 52.5313 36.5157 55.3074 39.9323 55.5209L42.7084 55.5209 42.7084 64.0626 39.9323 64.0626C36.3021 64.0626 33.5261 66.8386 33.5261 70.4688 33.5261 74.099 36.3021 76.8751 39.9323 76.8751L42.7084 76.8751 42.7084 85.4168 39.9323 85.4168C36.3021 85.4168 33.5261 88.1928 33.5261 91.823 33.5261 95.4532 36.3021 98.2293 39.9323 98.2293L42.7084 98.2293 42.7084 106.771 39.9323 106.771C36.3021 106.771 33.5261 109.547 33.5261 113.177 33.5261 116.807 36.3021 119.583 39.9323 119.583L42.7084 119.583 42.7084 128.125 39.9323 128.125C36.3021 128.125 33.5261 130.901 33.5261 134.531 33.5261 138.162 36.3021 140.938 39.9323 140.938L42.7084 140.938 42.7084 149.479 39.9323 149.479C36.3021 149.479 33.5261 152.255 33.5261 155.886 33.5261 159.516 36.3021 162.292 39.9323 162.292L42.7084 162.292 42.7084 175.104 175.104 175.104 175.104 29.8959 42.7084 29.8959Z" fill="#548235" transform="matrix(1.00488 0 0 1 590 823)"/><path d="M85.4168 123.854C90.1147 123.854 93.9584 127.698 93.9584 132.396 93.9584 137.094 90.1147 140.938 85.4168 140.938 80.7188 140.938 76.8751 137.094 76.8751 132.396 76.8751 127.698 80.7188 123.854 85.4168 123.854ZM85.4168 149.479C93.9584 149.479 101.219 143.073 102.287 134.531 103.354 125.99 98.0157 118.089 89.6876 115.953L89.6876 111.042C89.6876 108.693 91.6095 106.771 93.9584 106.771L123.854 106.771C130.901 106.771 136.667 101.005 136.667 93.9584L136.667 70.0417 142.219 75.5938C143.927 77.3022 146.49 77.3022 148.198 75.5938 149.906 73.8855 149.906 71.323 148.198 69.6147L135.386 56.8022C134.531 55.948 133.464 55.5209 132.396 55.5209 131.328 55.5209 130.261 55.948 129.406 56.8022L116.594 69.6147C114.886 71.323 114.886 73.8855 116.594 75.5938 118.302 77.3022 120.865 77.3022 122.573 75.5938L128.125 70.0417 128.125 93.9584C128.125 96.3074 126.203 98.2293 123.854 98.2293L93.9584 98.2293C86.9116 98.2293 81.1459 103.995 81.1459 111.042L81.1459 115.953C72.8178 118.089 67.4792 126.203 68.547 134.531 69.6147 143.073 76.8751 149.479 85.4168 149.479Z" fill="#548235" transform="matrix(1.00488 0 0 1 590 823)"/><path d="M148.198 116.594C147.344 115.74 146.276 115.313 145.208 115.313 144.141 115.313 143.073 115.74 142.219 116.594L132.396 126.417 122.573 116.594C120.865 114.886 118.302 114.886 116.594 116.594 114.886 118.302 114.886 120.865 116.594 122.573L126.417 132.396 116.594 142.219C114.886 143.927 114.886 146.49 116.594 148.198 118.302 149.906 120.865 149.906 122.573 148.198L132.396 138.375 142.219 148.198C143.927 149.906 146.49 149.906 148.198 148.198 149.906 146.49 149.906 143.927 148.198 142.219L138.375 132.396 148.198 122.573C149.906 120.865 149.906 118.302 148.198 116.594Z" fill="#548235" transform="matrix(1.00488 0 0 1 590 823)"/><path d="M69.6147 88.4064C70.4688 89.2605 71.5365 89.6876 72.6042 89.6876 73.672 89.6876 74.7397 89.2605 75.5938 88.4064L85.4168 78.5834 95.2397 88.4064C96.948 90.1147 99.5105 90.1147 101.219 88.4064 102.927 86.698 102.927 84.1355 101.219 82.4272L91.3959 72.6042 101.219 62.7813C102.927 61.073 102.927 58.5105 101.219 56.8022 99.5105 55.0938 96.948 55.0938 95.2397 56.8022L85.4168 66.6251 75.5938 56.8022C73.8855 55.0938 71.323 55.0938 69.6147 56.8022 67.9063 58.5105 67.9063 61.073 69.6147 62.7813L79.4376 72.6042 69.6147 82.4272C67.9063 84.1355 67.9063 86.698 69.6147 88.4064Z" fill="#548235" transform="matrix(1.00488 0 0 1 590 823)"/></g></g></g><rect x="664.5" y="881.5" width="121" height="133" stroke="#172C51" stroke-width="4.58333" stroke-miterlimit="8" fill="#FFFFFF"/><g><g><g><path d="M778.083 1008.08 670.792 1008.08 670.792 887.917 778.083 887.917 778.083 1008.08ZM657.917 875.042 657.917 887.917 655.127 887.917C651.694 888.131 649.333 890.921 649.333 894.354 649.119 897.787 651.694 900.577 655.127 900.792L657.917 900.792 657.917 909.375 655.127 909.375C651.479 909.375 648.69 912.164 648.69 915.812 648.69 919.46 651.479 922.25 655.127 922.25L657.917 922.25 657.917 930.833 655.127 930.833C651.479 930.833 648.69 933.623 648.69 937.271 648.69 940.919 651.479 943.708 655.127 943.708L657.917 943.708 657.917 952.292 655.127 952.292C651.479 952.292 648.69 955.081 648.69 958.729 648.69 962.377 651.479 965.167 655.127 965.167L657.917 965.167 657.917 973.75 655.127 973.75C651.479 973.75 648.69 976.539 648.69 980.187 648.69 983.835 651.479 986.625 655.127 986.625L657.917 986.625 657.917 995.208 655.127 995.208C651.479 995.208 648.69 997.998 648.69 1001.65 648.69 1005.29 651.479 1008.08 655.127 1008.08L657.917 1008.08 657.917 1020.96 790.958 1020.96 790.958 875.042 657.917 875.042Z" fill="#548235"/><path d="M700.833 969.458C705.554 969.458 709.417 973.321 709.417 978.042 709.417 982.762 705.554 986.625 700.833 986.625 696.112 986.625 692.25 982.762 692.25 978.042 692.25 973.321 696.112 969.458 700.833 969.458ZM700.833 995.208C709.417 995.208 716.712 988.771 717.785 980.187 718.858 971.604 713.494 963.664 705.125 961.519L705.125 956.583C705.125 954.223 707.056 952.292 709.417 952.292L739.458 952.292C746.539 952.292 752.333 946.498 752.333 939.417L752.333 915.383 757.912 920.962C759.629 922.679 762.204 922.679 763.921 920.962 765.637 919.246 765.637 916.671 763.921 914.954L751.046 902.079C750.187 901.221 749.114 900.792 748.042 900.792 746.969 900.792 745.896 901.221 745.037 902.079L732.162 914.954C730.446 916.671 730.446 919.246 732.162 920.962 733.879 922.679 736.454 922.679 738.171 920.962L743.75 915.383 743.75 939.417C743.75 941.777 741.819 943.708 739.458 943.708L709.417 943.708C702.335 943.708 696.542 949.502 696.542 956.583L696.542 961.519C688.173 963.664 682.808 971.819 683.881 980.187 684.954 988.771 692.25 995.208 700.833 995.208Z" fill="#548235"/><path d="M763.921 962.162C763.062 961.304 761.989 960.875 760.917 960.875 759.844 960.875 758.771 961.304 757.912 962.162L748.042 972.033 738.171 962.162C736.454 960.446 733.879 960.446 732.162 962.162 730.446 963.879 730.446 966.454 732.162 968.171L742.033 978.042 732.162 987.912C730.446 989.629 730.446 992.204 732.162 993.921 733.879 995.637 736.454 995.637 738.171 993.921L748.042 984.05 757.912 993.921C759.629 995.637 762.204 995.637 763.921 993.921 765.637 992.204 765.637 989.629 763.921 987.912L754.05 978.042 763.921 968.171C765.637 966.454 765.637 963.879 763.921 962.162Z" fill="#548235"/><path d="M684.954 933.837C685.812 934.696 686.885 935.125 687.958 935.125 689.031 935.125 690.104 934.696 690.962 933.837L700.833 923.967 710.704 933.837C712.421 935.554 714.996 935.554 716.712 933.837 718.429 932.121 718.429 929.546 716.712 927.829L706.842 917.958 716.712 908.087C718.429 906.371 718.429 903.796 716.712 902.079 714.996 900.362 712.421 900.362 710.704 902.079L700.833 911.95 690.962 902.079C689.246 900.362 686.671 900.362 684.954 902.079 683.237 903.796 683.237 906.371 684.954 908.087L694.825 917.958 684.954 927.829C683.237 929.546 683.237 932.121 684.954 933.837Z" fill="#548235"/></g></g></g><rect x="687.5" y="902.5" width="120" height="133" stroke="#172C51" stroke-width="4.58333" stroke-miterlimit="8" fill="#FFFFFF"/><g><g><g><path d="M162.292 162.292 55.5208 162.292 55.5208 42.7083 162.292 42.7083 162.292 162.292ZM42.7083 29.8958 42.7083 42.7083 39.9323 42.7083C36.5156 42.9218 34.1666 45.6979 34.1666 49.1146 33.9531 52.5312 36.5156 55.3073 39.9323 55.5208L42.7083 55.5208 42.7083 64.0625 39.9323 64.0625C36.3021 64.0625 33.526 66.8385 33.526 70.4687 33.526 74.0989 36.3021 76.875 39.9323 76.875L42.7083 76.875 42.7083 85.4166 39.9323 85.4166C36.3021 85.4166 33.526 88.1926 33.526 91.8229 33.526 95.4531 36.3021 98.2291 39.9323 98.2291L42.7083 98.2291 42.7083 106.771 39.9323 106.771C36.3021 106.771 33.526 109.547 33.526 113.177 33.526 116.807 36.3021 119.583 39.9323 119.583L42.7083 119.583 42.7083 128.125 39.9323 128.125C36.3021 128.125 33.526 130.901 33.526 134.531 33.526 138.161 36.3021 140.937 39.9323 140.937L42.7083 140.937 42.7083 149.479 39.9323 149.479C36.3021 149.479 33.526 152.255 33.526 155.885 33.526 159.516 36.3021 162.292 39.9323 162.292L42.7083 162.292 42.7083 175.104 175.104 175.104 175.104 29.8958 42.7083 29.8958Z" fill="#548235" transform="matrix(1 0 0 1.00488 641 867)"/><path d="M85.4166 123.854C90.1145 123.854 93.9583 127.698 93.9583 132.396 93.9583 137.094 90.1145 140.937 85.4166 140.937 80.7187 140.937 76.875 137.094 76.875 132.396 76.875 127.698 80.7187 123.854 85.4166 123.854ZM85.4166 149.479C93.9583 149.479 101.219 143.073 102.286 134.531 103.354 125.99 98.0156 118.088 89.6874 115.953L89.6874 111.042C89.6874 108.693 91.6093 106.771 93.9583 106.771L123.854 106.771C130.901 106.771 136.667 101.005 136.667 93.9583L136.667 70.0416 142.219 75.5937C143.927 77.302 146.489 77.302 148.198 75.5937 149.906 73.8854 149.906 71.3229 148.198 69.6145L135.385 56.802C134.531 55.9479 133.463 55.5208 132.396 55.5208 131.328 55.5208 130.26 55.9479 129.406 56.802L116.594 69.6145C114.885 71.3229 114.885 73.8854 116.594 75.5937 118.302 77.302 120.865 77.302 122.573 75.5937L128.125 70.0416 128.125 93.9583C128.125 96.3072 126.203 98.2291 123.854 98.2291L93.9583 98.2291C86.9114 98.2291 81.1458 103.995 81.1458 111.042L81.1458 115.953C72.8177 118.088 67.4791 126.203 68.5468 134.531 69.6145 143.073 76.875 149.479 85.4166 149.479Z" fill="#548235" transform="matrix(1 0 0 1.00488 641 867)"/><path d="M148.198 116.594C147.344 115.74 146.276 115.312 145.208 115.312 144.141 115.312 143.073 115.74 142.219 116.594L132.396 126.417 122.573 116.594C120.865 114.885 118.302 114.885 116.594 116.594 114.885 118.302 114.885 120.865 116.594 122.573L126.417 132.396 116.594 142.219C114.885 143.927 114.885 146.489 116.594 148.198 118.302 149.906 120.865 149.906 122.573 148.198L132.396 138.375 142.219 148.198C143.927 149.906 146.489 149.906 148.198 148.198 149.906 146.489 149.906 143.927 148.198 142.219L138.375 132.396 148.198 122.573C149.906 120.865 149.906 118.302 148.198 116.594Z" fill="#548235" transform="matrix(1 0 0 1.00488 641 867)"/><path d="M69.6145 88.4062C70.4687 89.2604 71.5364 89.6874 72.6041 89.6874 73.6718 89.6874 74.7395 89.2604 75.5937 88.4062L85.4166 78.5833 95.2395 88.4062C96.9479 90.1145 99.5104 90.1145 101.219 88.4062 102.927 86.6979 102.927 84.1354 101.219 82.427L91.3958 72.6041 101.219 62.7812C102.927 61.0729 102.927 58.5104 101.219 56.802 99.5104 55.0937 96.9479 55.0937 95.2395 56.802L85.4166 66.625 75.5937 56.802C73.8854 55.0937 71.3229 55.0937 69.6145 56.802 67.9062 58.5104 67.9062 61.0729 69.6145 62.7812L79.4375 72.6041 69.6145 82.427C67.9062 84.1354 67.9062 86.6979 69.6145 88.4062Z" fill="#548235" transform="matrix(1 0 0 1.00488 641 867)"/></g></g></g><rect x="1060.5" y="1155.5" width="2219" height="217" stroke="#000000" stroke-width="4.58333" stroke-miterlimit="8" stroke-dasharray="18.3333 13.75" fill="#FFFFFF"/><rect x="547.5" y="1155.5" width="479" height="217" stroke="#000000" stroke-width="4.58333" stroke-miterlimit="8" stroke-dasharray="18.3333 13.75" fill="#FBE5D6"/><text font-family="Times New Roman,Times New Roman_MSFontService,sans-serif" font-weight="700" font-size="73" transform="matrix(1 0 0 1 622.604 1247)">Taxonomy</text><text font-family="Times New Roman,Times New Roman_MSFontService,sans-serif" font-weight="700" font-size="73" transform="matrix(1 0 0 1 673.937 1335)">(Input)</text><text font-family="Times New Roman,Times New Roman_MSFontService,sans-serif" font-weight="700" font-size="73" transform="matrix(1 0 0 1 1130.03 1255)">Primitives</text><text font-family="Times New Roman,Times New Roman_MSFontService,sans-serif" font-weight="700" font-size="55" transform="matrix(1 0 0 1 1124.92 1325)">(Section IV</text><text font-family="Times New Roman,Times New Roman_MSFontService,sans-serif" font-weight="700" font-size="55" transform="matrix(1 0 0 1 1384.95 1325)">-</text><text font-family="Times New Roman,Times New Roman_MSFontService,sans-serif" font-weight="700" font-size="55" transform="matrix(1 0 0 1 1403.29 1325)">B)</text><path d="M1500.5 1209.35C1500.5 1205.01 1504.01 1201.5 1508.35 1201.5L1893.65 1201.5C1897.99 1201.5 1901.5 1205.01 1901.5 1209.35L1901.5 1327.65C1901.5 1331.99 1897.99 1335.5 1893.65 1335.5L1508.35 1335.5C1504.01 1335.5 1500.5 1331.99 1500.5 1327.65Z" stroke="#000000" stroke-width="6.875" stroke-miterlimit="8" fill="#EAF2FA" fill-rule="evenodd"/><text font-family="Times New Roman,Times New Roman_MSFontService,sans-serif" font-weight="700" font-size="64" transform="matrix(1 0 0 1 1665.83 1291)">Timing</text><g><g><g><path d="M1581.31 1249.41C1581.31 1250.96 1580.05 1252.22 1578.5 1252.22 1576.95 1252.22 1575.69 1250.96 1575.69 1249.41 1575.69 1247.85 1576.95 1246.59 1578.5 1246.59 1580.05 1246.59 1581.31 1247.85 1581.31 1249.41Z" fill="#2F5597"/><path d="M1581.31 1305.66C1581.31 1307.21 1580.05 1308.47 1578.5 1308.47 1576.95 1308.47 1575.69 1307.21 1575.69 1305.66 1575.69 1304.1 1576.95 1302.84 1578.5 1302.84 1580.05 1302.84 1581.31 1304.1 1581.31 1305.66Z" fill="#2F5597"/><path d="M1609.44 1276.12C1609.44 1277.68 1608.18 1278.94 1606.62 1278.94 1605.07 1278.94 1603.81 1277.68 1603.81 1276.12 1603.81 1274.57 1605.07 1273.31 1606.62 1273.31 1608.18 1273.31 1609.44 1274.57 1609.44 1276.12Z" fill="#2F5597"/><path d="M1553.19 1276.12C1553.19 1277.68 1551.93 1278.94 1550.38 1278.94 1548.82 1278.94 1547.56 1277.68 1547.56 1276.12 1547.56 1274.57 1548.82 1273.31 1550.38 1273.31 1551.93 1273.31 1553.19 1274.57 1553.19 1276.12Z" fill="#2F5597"/><path d="M1581.31 1256.44 1575.69 1256.44 1575.69 1276.12C1575.69 1276.83 1575.97 1277.53 1576.53 1278.09L1590.45 1292.02 1594.39 1288.08 1581.31 1275 1581.31 1256.44Z" fill="#2F5597"/><path d="M1578.5 1316.91C1556.7 1316.91 1539.13 1299.33 1539.13 1277.53 1539.13 1255.73 1556.7 1238.16 1578.5 1238.16 1600.3 1238.16 1617.87 1255.73 1617.87 1277.53 1617.87 1299.33 1600.3 1316.91 1578.5 1316.91L1578.5 1316.91ZM1611.83 1243.22 1616.05 1239C1617.59 1237.31 1617.59 1234.78 1615.91 1233.09 1614.36 1231.55 1611.69 1231.41 1610 1232.95L1605.22 1237.88C1598.47 1233.38 1590.73 1230.56 1582.72 1230L1582.72 1224.09 1595.38 1224.09 1595.38 1215.66 1561.62 1215.66 1561.62 1224.09 1574.28 1224.09 1574.28 1229.86C1551.92 1231.83 1533.92 1249.12 1531.11 1271.48 1528.3 1293.84 1541.38 1315.08 1562.61 1322.53 1583.84 1329.98 1607.33 1321.83 1619.28 1302.7 1631.23 1283.58 1627.86 1258.83 1611.83 1243.22L1611.83 1243.22Z" fill="#2F5597"/></g></g></g><path d="M1932.5 1209.35C1932.5 1205.01 1936.01 1201.5 1940.35 1201.5L2452.65 1201.5C2456.99 1201.5 2460.5 1205.01 2460.5 1209.35L2460.5 1327.65C2460.5 1331.99 2456.99 1335.5 2452.65 1335.5L1940.35 1335.5C1936.01 1335.5 1932.5 1331.99 1932.5 1327.65Z" stroke="#000000" stroke-width="6.875" stroke-miterlimit="8" fill="#EAF2FA" fill-rule="evenodd"/><text font-family="Times New Roman,Times New Roman_MSFontService,sans-serif" font-weight="700" font-size="64" transform="matrix(1 0 0 1 2055.94 1291)">Core Binding</text><g><g><g><path d="M2004.5 1325.19C1990.83 1325.19 1979.76 1314.12 1979.76 1300.45L1979.76 1234.04C1979.76 1224.02 1987.96 1215.81 1997.99 1215.81 2008.02 1215.81 2016.22 1224.02 2016.22 1234.04L2016.22 1295.24C2016.22 1301.75 2011.01 1306.96 2004.5 1306.96 1997.99 1306.96 1992.78 1301.75 1992.78 1295.24L1992.78 1263.99 2000.59 1263.99 2000.59 1295.24C2000.59 1297.45 2002.29 1299.15 2004.5 1299.15 2006.71 1299.15 2008.41 1297.45 2008.41 1295.24L2008.41 1234.04C2008.41 1228.31 2003.72 1223.62 1997.99 1223.62 1992.26 1223.62 1987.57 1228.31 1987.57 1234.04L1987.57 1300.45C1987.57 1309.82 1995.12 1317.38 2004.5 1317.38 2013.88 1317.38 2021.43 1309.82 2021.43 1300.45L2021.43 1273.1 2029.24 1273.1 2029.24 1300.45C2029.24 1314.12 2018.17 1325.19 2004.5 1325.19Z" fill="#2F5597"/></g></g></g><path d="M2492.5 1209.35C2492.5 1205.01 2496.01 1201.5 2500.35 1201.5L3222.65 1201.5C3226.99 1201.5 3230.5 1205.01 3230.5 1209.35L3230.5 1327.65C3230.5 1331.99 3226.99 1335.5 3222.65 1335.5L2500.35 1335.5C2496.01 1335.5 2492.5 1331.99 2492.5 1327.65Z" stroke="#000000" stroke-width="6.875" stroke-miterlimit="8" fill="#EAF2FA" fill-rule="evenodd"/><text font-family="Times New Roman,Times New Roman_MSFontService,sans-serif" font-weight="700" font-size="64" transform="matrix(1 0 0 1 2633.56 1291)">Just</text><text font-family="Times New Roman,Times New Roman_MSFontService,sans-serif" font-weight="700" font-size="64" transform="matrix(1 0 0 1 2747.57 1291)">-</text><text font-family="Times New Roman,Times New Roman_MSFontService,sans-serif" font-weight="700" font-size="64" transform="matrix(1 0 0 1 2768.76 1291)">in</text><text font-family="Times New Roman,Times New Roman_MSFontService,sans-serif" font-weight="700" font-size="64" transform="matrix(1 0 0 1 2822.04 1291)">-</text><text font-family="Times New Roman,Times New Roman_MSFontService,sans-serif" font-weight="700" font-size="64" transform="matrix(1 0 0 1 2843.24 1291)">Time Engine</text><g><g><g><path d="M64.5093 48.7331 64.5093 48.7331 71.8986 51.7912C72.1626 46.9418 76.3078 43.2245 81.1574 43.4884 84.5356 43.6723 87.5088 45.778 88.8036 48.9037 90.0564 52.0332 89.4645 55.5996 87.268 58.1568L96.1667 61.8449 96.3242 61.9105 109.436 30.1875 77.6211 17.0625 72.673 29.2293 72.673 29.2293 72.2924 30.135 72.1874 29.715C70.7427 26.245 66.7644 24.5961 63.2887 26.0268 61.7648 26.6848 60.5232 27.8612 59.7843 29.3475 58.5553 32.8954 60.435 36.7681 63.9831 37.9971 65.5568 38.5423 67.2759 38.4908 68.8143 37.8524L69.2343 37.6818 68.9849 38.2856 68.9849 38.2856Z" fill="#2F5597" transform="matrix(1 0 0 1 2511 1206)"/><path d="M61.1887 95.2874C64.6295 94.1488 66.496 90.4364 65.3574 86.9955 64.2188 83.5547 60.5064 81.6883 57.0656 82.8268 55.7583 83.2594 54.6201 84.0921 53.8124 85.2074L53.8124 73.3949 45.8456 73.3949C45.9032 73.8301 45.9339 74.2684 45.9374 74.7074 45.9374 80.5064 41.2365 85.2074 35.4374 85.2074 29.6384 85.2074 24.9375 80.5064 24.9375 74.7074 24.941 74.2684 24.9717 73.8301 25.0293 73.3949L17.0625 73.3949 17.0625 107.52 53.8124 107.52 53.8124 93.0824C53.9588 93.2838 54.1165 93.4766 54.2849 93.6599 54.3557 93.7944 54.4391 93.9218 54.5343 94.0405 56.0857 95.5261 58.298 96.0979 60.3749 95.5499 60.598 95.5499 60.808 95.4186 61.018 95.353Z" fill="#2F5597" transform="matrix(1 0 0 1 2511 1206)"/><path d="M77.4374 73.3686C77.6411 73.2205 77.834 73.0582 78.0149 72.883 78.1582 72.8283 78.2881 72.7432 78.3955 72.6336 80.0088 70.9047 80.543 68.4298 79.7868 66.1893L79.7868 65.9924C78.5672 62.5794 74.8117 60.8013 71.3987 62.0209 67.9857 63.2405 66.2076 66.9959 67.4272 70.409 67.8447 71.5776 68.5851 72.6038 69.5624 73.3686L57.7499 73.3686 57.7499 78.7499C58.1854 78.6971 58.6238 78.6709 59.0624 78.6711 64.8614 78.6711 69.5624 83.3721 69.5624 89.1711 69.5624 94.9701 64.8614 99.6711 59.0624 99.6711 58.6235 99.667 58.1851 99.6364 57.7499 99.5792L57.7499 107.494 91.8749 107.494 91.8749 73.3686Z" fill="#2F5597" transform="matrix(1 0 0 1 2511 1206)"/><path d="M53.8124 46.3049 53.8124 32.6812 17.0625 32.6812 17.0625 69.4311 31.5 69.4311C29.8475 70.6705 28.875 72.6155 28.875 74.6811 28.875 78.3055 31.8131 81.2436 35.4374 81.2436 39.0618 81.2436 41.9999 78.3055 41.9999 74.6811 41.9999 72.6155 41.0274 70.6705 39.3749 69.4311L53.8124 69.4311 53.8124 55.9387C50.9896 58.5874 46.5946 58.5874 43.7718 55.9387 41.1115 53.3404 41.0612 49.0776 43.6595 46.4173 43.6965 46.3793 43.7339 46.3419 43.7718 46.3049 46.5946 43.6562 50.9896 43.6562 53.8124 46.3049Z" fill="#2F5597" transform="matrix(1 0 0 1 2511 1206)"/></g></g></g><text font-family="Times New Roman,Times New Roman_MSFontService,sans-serif" font-style="italic" font-weight="400" font-size="64" transform="matrix(1 0 0 1 3434.93 848)">Platform</text><text font-family="Times New Roman,Times New Roman_MSFontService,sans-serif" font-style="italic" font-weight="400" font-size="64" transform="matrix(1 0 0 1 3662.95 848)">-</text><text font-family="Times New Roman,Times New Roman_MSFontService,sans-serif" font-style="italic" font-weight="400" font-size="64" transform="matrix(1 0 0 1 3684.15 848)">irrelevant</text><text font-family="Times New Roman,Times New Roman_MSFontService,sans-serif" font-style="italic" font-weight="400" font-size="64" transform="matrix(1 0 0 1 3434.93 925)">Generic Algorithm</text><path d="M3316.5 593.5C3336.93 593.5 3353.5 596.261 3353.5 599.666L3353.5 845.334C3353.5 848.74 3370.07 851.5 3390.5 851.5 3370.07 851.5 3353.5 854.261 3353.5 857.666L3353.5 1103.33C3353.5 1106.74 3336.93 1109.5 3316.5 1109.5" stroke="#0D0D0D" stroke-width="4.58333" stroke-miterlimit="8" fill="none" fill-rule="evenodd"/><path d="M3321.5 1159.5C3341.93 1159.5 3358.5 1162.26 3358.5 1165.67L3358.5 1260.33C3358.5 1263.74 3375.07 1266.5 3395.5 1266.5 3375.07 1266.5 3358.5 1269.26 3358.5 1272.67L3358.5 1367.33C3358.5 1370.74 3341.93 1373.5 3321.5 1373.5" stroke="#0D0D0D" stroke-width="4.58333" stroke-miterlimit="8" fill="none" fill-rule="evenodd"/><text font-family="Times New Roman,Times New Roman_MSFontService,sans-serif" font-style="italic" font-weight="400" font-size="64" transform="matrix(1 0 0 1 3429.8 1240)">Cross</text><text font-family="Times New Roman,Times New Roman_MSFontService,sans-serif" font-style="italic" font-weight="400" font-size="64" transform="matrix(1 0 0 1 3578.1 1240)">-</text><text font-family="Times New Roman,Times New Roman_MSFontService,sans-serif" font-style="italic" font-weight="400" font-size="64" transform="matrix(1 0 0 1 3599.3 1240)">platform Support </text><text font-family="Times New Roman,Times New Roman_MSFontService,sans-serif" font-style="italic" font-weight="400" font-size="64" transform="matrix(1 0 0 1 3429.8 1317)">Infrastructure</text><rect x="2942.5" y="1584.5" width="572" height="219" stroke="#C00000" stroke-width="4.58333" stroke-miterlimit="8" fill="#FFD1D1"/><text font-family="Times New Roman,Times New Roman_MSFontService,sans-serif" font-weight="700" font-size="64" transform="matrix(1 0 0 1 2975.3 1678)">Microbenchmarks</text><text font-family="Times New Roman,Times New Roman_MSFontService,sans-serif" font-weight="700" font-size="64" transform="matrix(1 0 0 1 3107.35 1755)">(Output)</text><path d="M3146.5 1532.5 3161 1532.5 3161 1449.5 3190 1449.5 3190 1532.5 3204.5 1532.5 3175.5 1561.5Z" stroke="#172C51" stroke-width="4.58333" stroke-miterlimit="8" fill="#D9D9D9" fill-rule="evenodd"/><rect x="3601.5" y="1584.5" width="571" height="219" stroke="#C00000" stroke-width="4.58333" stroke-miterlimit="8" fill="#FFD1D1"/><text font-family="Times New Roman,Times New Roman_MSFontService,sans-serif" font-weight="700" font-size="64" transform="matrix(1 0 0 1 3653.09 1678)">Characterization </text><text font-family="Times New Roman,Times New Roman_MSFontService,sans-serif" font-weight="700" font-size="64" transform="matrix(1 0 0 1 3777.71 1755)">Reports</text><path d="M3514 1691.85 3577.91 1691.85 3577.91 1694.15 3514 1694.15ZM3573.33 1679.25 3600.83 1693 3573.33 1706.75Z" fill="#C00000"/><path d="M3425.5 1122.5 4149.79 1122.5" stroke="#000000" stroke-width="4.58333" stroke-miterlimit="8" stroke-dasharray="18.3333 13.75" fill="none" fill-rule="evenodd"/></g></svg>